<?xml version="1.0" encoding="utf-8"?>
<!-- Generator: Adobe Illustrator 24.1.0, SVG Export Plug-In . SVG Version: 6.00 Build 0)  -->
<svg version="1.1" id="Layer_1" xmlns="http://www.w3.org/2000/svg" xmlns:xlink="http://www.w3.org/1999/xlink" x="0px"
     y="0px"
     viewBox="0 0 264 244.8" style="enable-background:new 0 0 264 244.8;" xml:space="preserve">
<path fill="#FFF" id="XMLID_224_" d="M114.4,3.3L3.3,114.4c-2.1,2.1-3.3,4.9-3.3,7.9c0,2.9,1.2,5.8,3.3,7.9l111.2,111.2c4.3,4.3,11.4,4.3,15.7,0
	c4.3-4.3,4.3-11.4,0-15.7L26.8,122.3L130.1,19c2.2-2.2,3.3-5,3.3-7.9s-1.1-5.7-3.3-7.9C125.8-1.1,118.8-1.1,114.4,3.3z"/>
    <path fill="#FFF" id="XMLID_1_" d="M180,3.5L68.9,114.6c-2.1,2.1-3.3,4.9-3.3,7.9c0,2.9,1.2,5.8,3.3,7.9L180,241.5c4.3,4.3,11.4,4.3,15.7,0
	c4.3-4.3,4.3-11.4,0-15.7L92.4,122.5L195.7,19.2c2.2-2.2,3.3-5,3.3-7.9s-1.1-5.7-3.3-7.9C191.4-0.9,184.4-0.9,180,3.5z"/>
    <path fill="#FFF" id="XMLID_2_" d="M245,3.5L133.9,114.6c-2.1,2.1-3.3,4.9-3.3,7.9c0,2.9,1.2,5.8,3.3,7.9L245,241.5c4.3,4.3,11.4,4.3,15.7,0
	c4.3-4.3,4.3-11.4,0-15.7L157.4,122.5L260.7,19.2c2.2-2.2,3.3-5,3.3-7.9s-1.1-5.7-3.3-7.9C256.4-0.9,249.4-0.9,245,3.5z"/>
</svg>
