<?xml version="1.0" encoding="utf-8"?>
<!-- Generator: Adobe Illustrator 24.1.0, SVG Export Plug-In . SVG Version: 6.00 Build 0)  -->
<svg version="1.1" id="Layer_1" xmlns="http://www.w3.org/2000/svg" xmlns:xlink="http://www.w3.org/1999/xlink" x="0px"
     y="0px"
     viewBox="0 0 199 244.8" style="enable-background:new 0 0 199 244.8;" xml:space="preserve">
<path fill="#FFF" id="XMLID_224_" d="M84.6,241.5l111.2-111.2c2.1-2.1,3.3-4.9,3.3-7.9c0-2.9-1.2-5.8-3.3-7.9L84.6,3.5c-4.3-4.3-11.4-4.3-15.7,0
	c-4.3,4.3-4.3,11.4,0,15.7l103.3,103.3L68.9,225.8c-2.2,2.2-3.3,5-3.3,7.9s1.1,5.7,3.3,7.9C73.2,245.8,80.2,245.8,84.6,241.5z"/>
    <path fill="#FFF" id="XMLID_1_" d="M19,241.3l111.2-111.2c2.1-2.1,3.3-4.9,3.3-7.9c0-2.9-1.2-5.8-3.3-7.9L19,3.3c-4.3-4.3-11.4-4.3-15.7,0
	c-4.3,4.3-4.3,11.4,0,15.7l103.3,103.3L3.3,225.6c-2.2,2.2-3.3,5-3.3,7.9c0,2.8,1.1,5.7,3.3,7.9C7.6,245.6,14.6,245.6,19,241.3z"/>
</svg>
