<?xml version="1.0" encoding="utf-8"?>
<!-- Generator: Adobe Illustrator 24.1.0, SVG Export Plug-In . SVG Version: 6.00 Build 0)  -->
<svg version="1.1" id="Layer_1" xmlns="http://www.w3.org/2000/svg" xmlns:xlink="http://www.w3.org/1999/xlink" x="0px"
     y="0px"
     viewBox="0 0 198.4 244.5" style="enable-background:new 0 0 198.4 244.5;" xml:space="preserve">
<path fill="#FFF" id="XMLID_1_" d="M114.4,3.3L3.3,114.4c-2.1,2.1-3.3,4.9-3.3,7.9c0,2.9,1.2,5.8,3.3,7.9l111.2,111.2c4.3,4.3,11.4,4.3,15.7,0
	c4.3-4.3,4.3-11.4,0-15.7L26.8,122.3L130.1,19c2.2-2.2,3.3-5,3.3-7.9s-1.1-5.7-3.3-7.9C125.8-1.1,118.8-1.1,114.4,3.3z"/>
    <path fill="#FFF" id="XMLID_2_" d="M179.4,3.3L68.3,114.4c-2.1,2.1-3.3,4.9-3.3,7.9c0,2.9,1.2,5.8,3.3,7.9l111.2,111.2c4.3,4.3,11.4,4.3,15.7,0
	c4.3-4.3,4.3-11.4,0-15.7L91.8,122.3L195.1,19c2.2-2.2,3.3-5,3.3-7.9s-1.1-5.7-3.3-7.9C190.8-1.1,183.8-1.1,179.4,3.3z"/>
</svg>
